<?xml version="1.0" standalone="no"?>
<!DOCTYPE svg PUBLIC "-//W3C//DTD SVG 20010904//EN"
 "http://www.w3.org/TR/2001/REC-SVG-20010904/DTD/svg10.dtd">
<svg version="1.0" xmlns="http://www.w3.org/2000/svg"
 width="423.000000pt" height="670.000000pt" viewBox="0 0 423.000000 670.000000"
 preserveAspectRatio="xMidYMid meet">
<metadata>
Created by potrace 1.15, written by Peter Selinger 2001-2017
</metadata>
<g transform="translate(0.000000,670.000000) scale(0.100000,-0.100000)"
fill="#000000" stroke="none">
<path d="M660 6683 c-8 -3 -17 -9 -20 -13 -3 -4 -27 -15 -53 -24 -26 -9 -53
-21 -60 -26 -25 -21 -84 -60 -146 -96 -65 -37 -131 -98 -131 -121 0 -7 -9 -18
-20 -25 -11 -7 -20 -17 -20 -23 0 -6 -11 -19 -25 -29 -25 -19 -85 -100 -85
-115 0 -4 -11 -22 -25 -41 -14 -19 -25 -43 -25 -54 0 -22 -20 -82 -33 -103 -5
-7 -5 -17 -2 -23 3 -5 1 -10 -4 -10 -8 0 -11 -779 -11 -2606 0 -2196 2 -2611
14 -2637 22 -50 34 -89 41 -129 3 -20 12 -38 19 -41 8 -3 17 -19 21 -36 4 -17
11 -31 16 -31 5 0 13 -9 17 -19 4 -10 33 -47 64 -80 32 -34 58 -67 58 -74 0
-27 75 -93 138 -121 23 -10 42 -22 42 -25 0 -4 13 -15 30 -24 16 -10 35 -23
42 -31 7 -7 36 -21 63 -31 28 -10 57 -24 65 -30 8 -6 35 -18 60 -25 25 -8 48
-19 52 -25 5 -7 442 -10 1390 -10 l1383 0 45 21 c25 12 57 24 73 28 15 3 27
11 27 16 0 6 7 10 15 10 21 0 95 33 95 42 0 4 19 17 43 29 23 12 44 25 47 29
3 4 21 15 40 25 36 18 115 94 162 155 14 19 44 54 67 77 23 23 41 46 41 51 0
5 6 15 14 21 8 7 17 34 21 62 4 27 11 49 16 49 12 0 12 5487 0 5494 -4 3 -11
24 -15 47 -4 23 -16 53 -26 67 -11 13 -20 28 -20 33 0 4 -33 41 -72 82 -86 88
-118 126 -118 136 0 4 -10 13 -22 20 -13 6 -36 20 -53 31 -16 11 -37 23 -45
27 -8 4 -19 11 -25 15 -30 24 -94 62 -120 71 -16 5 -36 17 -43 26 -12 15 -142
16 -1500 18 -818 1 -1494 -1 -1502 -4z m-133 -179 c3 -10 -83 -104 -95 -104
-17 0 -172 -162 -172 -179 0 -10 -9 -26 -20 -36 -11 -10 -20 -25 -20 -34 0 -9
-9 -22 -19 -28 -11 -7 -22 -26 -26 -43 -4 -16 -13 -30 -21 -30 -19 0 -18 44 1
60 8 7 15 19 15 27 0 19 50 106 67 116 7 4 13 13 13 20 0 12 71 89 131 142
120 105 137 115 146 89z m2983 -8 c30 -10 64 -24 75 -30 11 -6 44 -23 73 -38
29 -15 76 -46 105 -69 29 -22 61 -45 73 -49 20 -8 134 -140 134 -155 0 -12 43
-98 62 -124 10 -14 16 -32 12 -45 -3 -14 2 -28 15 -40 14 -12 21 -31 21 -53 0
-19 5 -43 10 -53 13 -24 14 -4868 1 -4884 -4 -6 -11 -40 -15 -76 -4 -41 -13
-75 -26 -92 -11 -15 -20 -36 -20 -48 0 -11 -16 -43 -35 -70 -19 -27 -35 -60
-35 -73 0 -57 -295 -307 -362 -307 -10 0 -27 -9 -38 -20 -19 -19 -40 -20
-1417 -22 l-1397 -3 -23 23 c-12 12 -31 22 -41 22 -10 0 -29 9 -42 20 -13 11
-29 20 -37 20 -17 0 -152 108 -216 172 -26 27 -59 68 -74 91 -15 23 -36 52
-46 64 -14 15 -18 30 -13 47 5 19 1 31 -14 43 -13 11 -20 30 -20 51 0 18 -8
47 -18 65 -16 30 -17 168 -20 2437 -1 1488 1 2434 7 2480 14 106 32 182 47
201 8 8 14 32 14 52 0 20 4 39 10 42 5 3 29 36 53 73 63 96 179 205 277 259
19 11 57 32 83 46 44 25 75 36 167 57 19 4 615 7 1325 6 1237 -1 1292 -2 1345
-20z m610 -5865 c0 -11 -5 -23 -11 -27 -6 -3 -19 -25 -28 -48 -23 -52 -186
-233 -266 -293 -31 -24 -65 -30 -65 -12 0 20 21 49 35 49 22 0 183 158 223
220 20 30 44 61 54 68 10 7 18 24 18 38 0 17 5 24 20 24 13 0 20 -7 20 -19z"/>
<path d="M858 6420 c-37 -5 -77 -15 -90 -24 -12 -9 -32 -16 -44 -16 -12 0 -32
-8 -45 -19 -13 -10 -49 -30 -79 -44 -61 -28 -92 -57 -178 -167 -94 -121 -115
-162 -145 -280 -16 -65 -22 -4887 -6 -4906 6 -8 8 -25 5 -38 -3 -14 -2 -28 4
-31 5 -3 10 -21 10 -39 0 -19 7 -39 15 -46 8 -7 15 -20 15 -30 0 -20 41 -100
65 -127 26 -29 99 -126 110 -147 6 -10 29 -28 53 -41 23 -12 47 -27 54 -32 7
-6 44 -27 82 -47 38 -20 74 -40 80 -45 6 -5 31 -12 56 -16 63 -11 2585 -11
2640 -1 25 5 61 18 80 29 19 11 55 31 80 44 98 52 138 80 172 118 126 144 167
211 179 295 4 30 12 73 18 95 7 28 11 794 11 2466 0 2125 -2 2431 -15 2468 -8
23 -18 71 -21 106 -8 74 -38 126 -152 264 -58 70 -79 87 -127 106 -31 13 -65
31 -74 39 -10 9 -23 16 -30 16 -6 0 -35 12 -64 28 l-52 27 -1270 1 c-698 1
-1300 -2 -1337 -6z m-14 -90 c37 -14 32 -28 -13 -40 -21 -5 -44 -17 -51 -25
-7 -8 -21 -15 -31 -15 -23 0 -150 -101 -211 -169 -30 -33 -48 -61 -48 -77 0
-13 -7 -27 -15 -30 -8 -3 -19 -23 -25 -44 -6 -23 -18 -41 -30 -45 -11 -3 -20
-17 -22 -32 -2 -15 -9 -28 -15 -31 -18 -5 -16 46 2 64 8 9 15 25 15 37 0 25
40 117 52 117 4 0 14 15 21 33 8 17 34 52 58 77 57 59 194 160 216 160 10 1
29 7 43 15 31 17 24 17 54 5z m1339 -192 c17 -17 44 -39 59 -48 15 -9 56 -43
90 -76 69 -64 136 -119 155 -125 6 -2 36 -27 65 -55 29 -28 91 -81 138 -119
47 -38 87 -71 90 -74 11 -12 187 -158 223 -185 21 -15 74 -61 117 -101 43 -40
96 -85 117 -98 22 -14 74 -56 115 -94 41 -37 83 -73 94 -79 18 -11 15 -15 -31
-61 -27 -27 -70 -74 -95 -104 -25 -30 -61 -68 -81 -85 -20 -16 -54 -53 -75
-82 -45 -61 -149 -162 -168 -162 -7 0 -21 10 -32 21 -25 29 -251 219 -259 219
-4 0 -59 48 -123 106 -65 58 -124 109 -132 112 -18 6 -112 82 -122 98 -11 18
-146 124 -157 124 -8 0 -68 -60 -145 -144 -14 -16 -26 -37 -26 -47 0 -20 28
-39 55 -39 10 0 48 -30 86 -67 38 -36 95 -85 126 -107 32 -22 63 -45 69 -51
75 -69 107 -96 158 -134 57 -42 114 -88 251 -206 33 -28 71 -58 85 -67 14 -9
59 -47 100 -85 42 -38 94 -79 115 -93 22 -13 74 -55 115 -94 41 -39 100 -88
130 -108 30 -20 73 -53 95 -73 38 -34 39 -36 20 -48 -11 -7 -38 -30 -60 -52
-22 -22 -65 -57 -96 -78 -31 -21 -76 -61 -99 -89 -24 -28 -71 -71 -105 -97
-61 -45 -179 -147 -320 -275 -99 -90 -245 -218 -279 -244 -16 -12 -63 -53
-105 -91 -147 -134 -191 -171 -201 -171 -6 0 -15 10 -20 23 -5 12 -17 31 -27
43 -23 26 -108 94 -118 94 -4 0 -49 41 -99 91 -50 50 -102 97 -116 104 -14 7
-41 30 -60 51 -19 22 -62 62 -94 89 -33 28 -109 96 -170 153 -61 56 -115 102
-121 102 -6 0 -26 16 -44 35 -18 20 -79 77 -135 127 -55 50 -105 96 -111 103
-5 6 -27 17 -47 24 -21 7 -40 17 -44 22 -7 13 5 49 17 49 14 0 80 54 149 120
31 30 70 66 86 80 67 57 199 177 227 208 17 17 33 32 37 32 4 0 33 -26 66 -58
32 -32 79 -74 104 -94 25 -19 72 -64 105 -98 33 -34 80 -76 105 -93 25 -17 72
-58 105 -92 33 -33 95 -88 137 -122 l77 -62 42 37 c24 20 65 58 92 85 26 26
55 47 63 47 40 0 6 42 -103 127 -65 51 -136 110 -158 133 -21 22 -45 40 -52
40 -14 0 -42 23 -132 108 -31 30 -80 68 -109 84 -29 17 -58 39 -66 49 -19 28
-208 179 -223 179 -7 0 -13 4 -13 8 0 9 -180 159 -225 188 -16 10 -32 21 -35
24 -47 49 -182 159 -205 167 -35 11 -43 35 -19 55 9 7 31 28 48 47 17 18 61
63 99 100 54 53 397 395 425 423 4 4 34 34 67 66 33 32 78 80 100 105 21 25
60 61 86 79 26 18 60 49 76 68 15 20 62 67 103 104 41 38 81 77 88 87 19 28
49 23 85 -13z m1407 -1099 c0 -30 -10 -42 -319 -368 -58 -60 -110 -120 -117
-133 -20 -37 -110 -109 -128 -102 -29 11 -17 34 49 95 36 34 65 65 65 69 0 5
35 44 78 87 43 43 93 96 112 118 71 83 204 220 224 232 26 15 36 16 36 2z
m-65 -1160 c14 -22 -7 -59 -53 -92 -27 -19 -84 -68 -126 -108 -42 -40 -96 -87
-119 -104 -23 -17 -58 -46 -77 -65 -20 -19 -67 -61 -105 -93 -77 -64 -147
-125 -238 -204 -33 -29 -63 -53 -67 -53 -4 0 -22 -15 -41 -32 -84 -80 -202
-184 -217 -192 -22 -11 -42 -29 -132 -116 -41 -40 -89 -79 -107 -86 -17 -8
-34 -18 -38 -24 -10 -16 -35 -12 -35 5 0 9 8 19 18 22 20 8 125 100 132 117 7
18 79 79 125 107 22 13 82 65 133 116 51 51 98 93 103 93 6 0 61 46 122 103
62 56 185 163 272 237 88 74 200 172 250 217 49 46 110 101 134 123 47 42 56
46 66 29z m-2559 -316 c32 -27 85 -76 118 -110 32 -35 65 -63 72 -63 7 0 55
-40 107 -89 52 -49 114 -103 138 -121 24 -17 79 -65 121 -105 43 -41 97 -86
120 -101 24 -15 68 -53 98 -84 30 -31 98 -92 150 -135 52 -44 126 -108 165
-142 38 -35 78 -63 88 -63 10 0 63 41 117 91 54 50 123 107 152 127 29 19 85
66 123 104 39 39 89 81 112 94 23 14 61 44 85 67 65 62 115 105 146 124 15 9
47 35 72 58 25 23 57 50 71 61 15 10 66 53 114 94 48 41 107 90 131 107 24 18
60 49 81 69 74 72 108 79 103 23 -8 -95 -9 -693 -1 -707 8 -15 -4 -30 -71 -88
-45 -38 -117 -100 -160 -139 -43 -38 -109 -94 -146 -123 -37 -30 -92 -77 -122
-106 -30 -29 -71 -64 -90 -78 -19 -14 -66 -55 -105 -92 -38 -37 -98 -87 -131
-112 -34 -24 -69 -54 -77 -67 -16 -25 -149 -137 -163 -137 -7 0 -80 -68 -206
-193 l-48 -47 -18 22 c-29 36 -64 71 -117 113 -27 22 -62 52 -76 68 -15 15
-32 27 -37 27 -13 0 -94 65 -157 126 -28 27 -75 65 -105 85 -30 20 -77 58
-105 83 -69 65 -130 114 -160 130 -14 7 -50 36 -80 64 -30 28 -81 70 -112 94
-32 23 -80 62 -108 86 -27 25 -61 55 -75 67 -14 12 -46 34 -71 49 l-47 27 4
147 c7 258 7 668 -1 691 -7 24 9 51 30 51 7 0 39 -21 71 -47z m2594 -797 c0
-16 -14 -32 -47 -54 -27 -17 -79 -63 -118 -102 -38 -39 -85 -78 -104 -87 -19
-9 -72 -54 -117 -99 -46 -46 -97 -90 -114 -99 -18 -9 -62 -45 -98 -80 -37 -35
-89 -80 -116 -102 -28 -21 -70 -57 -95 -80 -59 -53 -120 -105 -391 -331 -150
-125 -239 -181 -205 -129 18 28 94 92 120 101 11 4 34 24 50 45 17 21 77 76
133 122 150 124 432 371 472 414 19 20 60 53 90 72 30 20 92 73 138 119 45 46
88 84 96 84 7 0 55 40 107 90 52 49 97 90 100 90 3 0 23 13 44 30 41 32 55 31
55 -4z m-2624 -277 c28 -31 339 -304 413 -363 20 -17 74 -64 121 -106 47 -42
105 -91 130 -110 25 -19 82 -71 128 -117 46 -46 89 -83 96 -83 8 0 40 -26 72
-59 75 -75 232 -201 251 -201 7 0 16 6 19 14 3 8 30 30 59 50 30 19 84 65 122
101 37 36 89 77 115 90 25 14 55 37 66 52 11 16 59 60 107 98 153 123 219 177
276 229 31 28 85 71 119 96 34 25 86 69 114 98 28 29 72 64 97 77 25 13 76 56
112 95 75 81 105 90 98 30 -2 -19 -5 -197 -6 -394 -3 -337 -4 -361 -22 -373
-10 -7 -49 -42 -88 -77 -98 -90 -387 -340 -470 -408 -39 -31 -83 -70 -100 -87
-16 -17 -52 -48 -80 -68 -27 -20 -89 -75 -136 -121 -48 -46 -100 -90 -115 -98
-16 -8 -63 -48 -104 -88 -41 -40 -97 -88 -125 -107 -27 -18 -57 -39 -65 -47
-12 -13 -18 -11 -40 17 -15 17 -32 31 -40 31 -7 0 -37 21 -65 48 -117 105
-156 137 -179 147 -14 6 -56 40 -93 75 -84 79 -182 160 -194 160 -5 0 -24 15
-42 33 -39 39 -171 147 -181 147 -8 0 -98 77 -195 166 -31 28 -67 57 -81 64
-14 7 -43 28 -66 47 -23 18 -46 33 -52 33 -6 0 -20 9 -31 21 -18 19 -19 33
-15 178 7 293 7 656 -1 685 -6 23 -4 32 10 43 25 18 27 17 61 -18z m2632 -807
c4 -14 -84 -104 -152 -157 -21 -17 -64 -53 -95 -81 -153 -139 -202 -181 -237
-207 -22 -16 -70 -57 -109 -93 -38 -35 -88 -78 -110 -95 -22 -17 -80 -67 -128
-112 -49 -45 -96 -86 -105 -91 -10 -5 -42 -33 -72 -61 -59 -56 -104 -95 -160
-137 -19 -15 -73 -63 -120 -107 -62 -59 -92 -81 -112 -81 -38 0 -27 32 26 72
22 18 64 56 92 85 28 29 54 53 58 53 12 0 157 123 184 156 15 19 32 34 38 34
12 0 79 57 183 157 42 40 81 73 86 73 6 0 51 39 100 86 50 47 107 97 129 111
21 13 57 43 80 66 23 23 111 101 196 174 85 72 161 141 168 153 14 23 52 24
60 2z"/>
<path d="M2140 6056 c0 -13 128 -128 245 -221 28 -22 86 -71 131 -110 44 -38
98 -83 120 -100 21 -16 66 -55 100 -87 34 -31 79 -67 100 -81 22 -13 50 -37
64 -52 14 -15 70 -64 125 -107 120 -96 253 -216 266 -241 9 -15 -3 -32 -63
-95 -41 -42 -107 -114 -147 -159 -40 -46 -79 -83 -87 -83 -8 0 -33 18 -57 39
-23 22 -67 59 -98 83 -31 24 -98 79 -149 123 -51 44 -103 87 -115 95 -13 8
-88 69 -166 136 -146 122 -194 154 -234 154 -37 0 -105 -45 -190 -125 -54 -51
-84 -73 -95 -69 -31 13 -106 22 -142 17 l-36 -5 12 35 c20 60 80 136 194 249
89 88 121 113 184 142 43 20 81 36 86 36 17 0 121 -67 162 -104 21 -19 57 -46
78 -60 21 -13 78 -61 127 -106 49 -45 107 -94 129 -109 23 -14 46 -31 51 -37
6 -6 49 -45 97 -87 78 -68 128 -95 128 -68 0 10 -156 145 -287 249 -44 34
-101 85 -128 112 -27 28 -53 50 -58 50 -5 0 -54 37 -110 81 -56 45 -120 92
-144 104 l-42 23 -78 -40 c-101 -51 -117 -64 -255 -201 -74 -74 -131 -140
-157 -184 -23 -38 -41 -73 -41 -79 0 -5 12 -20 27 -34 23 -23 35 -25 112 -26
47 0 94 -4 104 -9 15 -6 32 5 81 56 80 83 178 169 192 169 6 0 19 -9 30 -21
10 -12 32 -28 48 -36 17 -9 53 -37 80 -63 28 -25 94 -80 146 -121 52 -42 102
-82 110 -90 8 -8 44 -39 80 -69 36 -30 67 -58 70 -61 3 -3 25 -20 50 -38 25
-18 61 -47 80 -64 19 -18 54 -47 78 -66 40 -31 45 -33 69 -20 14 8 49 41 77
73 28 33 92 103 143 156 50 53 95 109 99 124 9 38 -24 76 -178 203 -72 59
-161 135 -198 168 -37 33 -89 76 -116 95 -27 19 -79 63 -116 98 -37 34 -71 62
-76 62 -5 0 -53 41 -107 90 -54 50 -121 106 -149 124 -28 19 -60 44 -71 56
-39 44 -156 140 -170 140 -8 0 -15 -6 -15 -14z"/>
<path d="M2155 5544 c-5 -2 -28 -8 -50 -13 -69 -18 -120 -82 -52 -66 65 15
196 14 233 -1 44 -19 52 -13 30 22 -24 35 -121 71 -161 58z"/>
<path d="M1650 5083 c0 -18 58 -100 77 -107 9 -4 19 -2 23 4 3 5 44 15 89 21
82 10 84 9 121 -16 20 -14 71 -57 112 -95 42 -39 79 -70 83 -70 9 0 90 -65
155 -125 30 -28 82 -69 115 -92 33 -22 85 -64 115 -93 30 -28 80 -71 110 -93
30 -23 92 -73 138 -112 46 -38 98 -81 116 -95 81 -60 196 -156 249 -208 32
-31 68 -61 79 -66 34 -17 32 -34 -6 -57 -20 -11 -36 -24 -36 -29 0 -4 -33 -35
-72 -70 -40 -34 -95 -83 -123 -109 -27 -25 -88 -78 -135 -117 -47 -39 -96 -82
-110 -95 -14 -14 -61 -55 -105 -91 -44 -37 -100 -88 -124 -113 -25 -25 -68
-61 -96 -79 -28 -19 -69 -54 -92 -79 -60 -65 -152 -137 -175 -137 -21 0 -115
69 -163 120 -16 18 -85 79 -152 136 -67 58 -128 113 -136 124 -8 11 -32 33
-55 49 -22 17 -78 65 -125 108 -46 43 -108 98 -138 123 -29 25 -76 69 -104 99
-27 29 -67 62 -87 72 -48 25 -50 49 -4 49 18 0 53 7 76 15 23 8 67 15 96 15
56 0 65 8 38 34 -20 20 -17 21 -143 -10 -58 -15 -123 -26 -143 -25 -52 2 -49
-16 9 -64 26 -22 90 -80 143 -131 52 -50 102 -95 112 -100 19 -11 186 -158
333 -294 266 -247 413 -370 440 -370 21 0 129 81 206 155 42 40 90 81 105 91
16 9 65 52 109 95 44 42 114 106 156 140 138 116 361 312 408 359 25 25 62 57
81 70 81 56 91 101 34 147 -19 15 -68 57 -108 93 -100 89 -173 150 -181 150
-4 0 -33 23 -64 52 -31 28 -102 87 -158 130 -57 44 -139 113 -184 154 -44 41
-85 74 -89 74 -10 0 -119 89 -170 139 -19 18 -55 47 -79 62 -24 16 -64 48 -90
71 -25 24 -81 72 -124 106 -72 58 -81 63 -105 53 -15 -5 -53 -10 -86 -10 -32
0 -61 -3 -64 -5 -8 -8 -74 23 -88 42 -8 9 -14 12 -14 5z"/>
<path d="M1537 5053 c-13 -12 -7 -20 56 -69 34 -27 89 -76 122 -109 98 -98
258 -237 285 -247 13 -5 27 -12 30 -16 3 -4 21 -20 40 -36 19 -16 63 -55 97
-87 34 -32 79 -67 100 -78 21 -10 52 -34 68 -51 32 -35 162 -142 181 -150 21
-9 104 -118 100 -132 -2 -7 -7 -24 -10 -38 -4 -22 -11 -25 -48 -26 -24 0 -64
-2 -89 -5 -38 -3 -52 1 -77 21 -16 14 -72 60 -124 102 -51 43 -117 97 -147
120 -29 24 -72 59 -95 79 -22 20 -84 69 -136 109 -52 40 -120 97 -150 125 -30
29 -80 68 -110 88 -30 20 -74 53 -96 74 -48 44 -88 76 -159 129 -27 21 -68 54
-91 73 -22 20 -49 41 -60 47 -15 10 -17 16 -8 30 6 11 21 20 33 22 11 2 21 8
21 14 0 6 -9 7 -22 3 -28 -9 -64 -9 -100 0 -24 6 -28 4 -28 -13 0 -11 11 -27
23 -35 13 -8 62 -48 109 -89 47 -40 109 -91 137 -113 86 -66 114 -89 136 -111
11 -12 38 -32 60 -46 22 -14 71 -53 108 -87 38 -34 101 -86 140 -116 68 -51
241 -190 297 -237 14 -12 59 -49 100 -82 41 -33 100 -82 130 -109 l55 -49 85
7 c47 4 93 11 102 16 10 6 19 5 23 -1 8 -13 42 -13 50 0 4 6 0 22 -9 35 -9 13
-16 40 -16 60 0 19 -4 35 -10 35 -5 0 -10 7 -10 16 0 28 -204 215 -320 293
-40 27 -159 130 -207 178 -18 18 -39 33 -46 33 -8 0 -25 10 -39 23 -14 12 -65
56 -113 97 -49 41 -108 95 -131 120 -58 61 -59 63 -140 130 -71 59 -84 66 -97
53z"/>
<path d="M1470 4209 c7 -11 19 -28 29 -37 25 -24 188 -170 241 -216 25 -21 74
-66 110 -100 36 -34 88 -79 115 -101 28 -21 58 -47 68 -57 37 -37 67 -52 80
-39 9 10 2 21 -33 53 -25 23 -63 54 -84 70 -22 15 -80 66 -130 113 -226 209
-372 335 -388 335 -16 0 -17 -3 -8 -21z"/>
<path d="M2700 4061 c0 -24 91 -114 122 -121 27 -7 40 -60 15 -60 -8 0 -24 -9
-37 -20 -13 -11 -26 -20 -30 -20 -3 0 -53 -48 -111 -106 -116 -118 -298 -277
-391 -341 -34 -24 -70 -52 -80 -63 -27 -28 -44 -25 -79 15 -29 33 -79 49 -79
26 0 -15 106 -101 124 -101 39 0 275 194 512 419 60 59 127 117 147 131 20 14
39 33 42 43 5 14 20 17 93 19 48 0 110 0 138 -1 55 -3 94 11 94 33 0 22 -20
24 -145 15 -133 -10 -176 -1 -194 38 -6 13 -18 23 -27 23 -9 0 -35 20 -60 45
-49 51 -54 53 -54 26z"/>
<path d="M1458 3873 c-10 -2 -18 -9 -18 -14 0 -5 8 -13 18 -16 29 -11 153
-114 227 -188 39 -38 83 -79 99 -89 16 -10 69 -57 117 -103 58 -56 94 -83 106
-81 14 3 4 19 -51 78 -39 41 -88 88 -110 103 -23 16 -84 70 -136 120 -80 78
-225 200 -233 196 -1 -1 -10 -3 -19 -6z"/>
<path d="M2529 3736 c-59 -68 -131 -136 -159 -151 -15 -8 -30 -21 -33 -30 -4
-8 -13 -15 -21 -15 -9 0 -36 -7 -62 -16 -40 -13 -48 -14 -62 -1 -30 25 -50 27
-55 6 -7 -26 -55 -25 -107 2 -46 24 -58 20 -42 -15 15 -34 105 -76 164 -76 55
0 134 35 165 72 10 13 26 28 34 33 94 60 225 193 216 218 -3 7 -18 -4 -38 -27z"/>
<path d="M996 3412 c-6 -11 79 -101 124 -132 19 -13 60 -46 91 -74 30 -28 66
-60 80 -70 13 -10 58 -49 99 -85 41 -36 97 -84 124 -105 27 -22 87 -76 135
-121 47 -44 109 -97 136 -117 28 -20 70 -58 95 -83 95 -99 230 -184 230 -146
0 12 -28 41 -39 41 -10 0 -128 99 -189 159 -24 23 -60 52 -80 66 -21 13 -69
54 -108 93 -40 38 -94 87 -122 108 -27 22 -90 75 -140 119 -49 44 -143 125
-209 180 -65 55 -134 117 -154 137 -34 36 -62 47 -73 30z"/>
<path d="M3327 3381 c-6 -28 -68 -172 -88 -201 -5 -8 -12 -23 -16 -34 -3 -10
-17 -39 -30 -63 -12 -24 -23 -52 -23 -62 0 -9 -30 -44 -66 -77 -125 -111 -194
-177 -194 -186 0 -20 30 -3 90 53 36 33 91 82 122 107 32 26 58 55 58 65 0 10
7 20 15 23 9 4 27 32 41 63 14 31 34 72 45 92 10 20 19 42 19 49 0 6 9 23 19
36 24 31 55 128 48 149 -10 25 -34 17 -40 -14z"/>
<path d="M3095 3065 c-32 -48 -58 -76 -85 -90 -14 -7 -64 -52 -113 -99 -48
-47 -93 -86 -100 -86 -6 0 -49 -35 -93 -78 -45 -42 -92 -84 -104 -92 -32 -21
-72 -56 -136 -117 -29 -29 -58 -53 -63 -53 -6 0 -15 -9 -21 -20 -6 -11 -15
-20 -21 -20 -6 0 -27 -14 -47 -31 -47 -39 -155 -79 -138 -50 3 5 -3 11 -14 14
-13 3 -24 -1 -30 -14 -13 -24 -34 -24 -85 1 -66 32 -82 24 -45 -22 33 -42 85
-61 147 -54 57 7 124 42 145 77 7 11 30 29 51 40 20 11 37 24 37 29 0 6 5 10
11 10 7 0 22 10 34 23 12 12 33 30 48 40 14 11 36 34 49 53 13 19 33 37 45 41
22 8 93 66 172 141 25 24 69 59 98 78 28 19 62 47 75 63 27 34 143 131 157
131 15 0 52 71 49 94 -3 19 -5 19 -23 -9z"/>
<path d="M3218 2963 c-10 -2 -18 -8 -18 -13 0 -11 81 -70 96 -70 14 0 25 -25
18 -42 -3 -7 -30 -31 -61 -53 -31 -22 -83 -66 -115 -97 -33 -31 -83 -74 -111
-95 -27 -21 -86 -72 -131 -113 -45 -42 -108 -98 -141 -125 -33 -28 -65 -54
-71 -60 -18 -16 -201 -177 -293 -257 -116 -100 -250 -208 -260 -208 -4 0 -25
15 -47 33 -21 18 -55 44 -74 57 -19 14 -78 61 -131 105 -53 44 -140 116 -194
160 -55 44 -120 98 -146 120 -25 22 -84 69 -130 105 -46 36 -105 83 -131 105
-26 22 -78 64 -117 94 -39 30 -71 58 -71 63 0 5 -16 18 -35 29 -51 31 -45 50
32 104 105 73 107 74 149 34 82 -78 103 -95 142 -118 22 -13 69 -53 104 -88
35 -35 75 -70 89 -78 32 -17 97 -71 169 -139 30 -29 71 -63 90 -76 19 -13 58
-44 87 -69 67 -60 97 -81 160 -117 l53 -29 47 25 c26 14 62 35 80 46 38 25
133 109 133 118 0 15 -27 3 -55 -23 -33 -32 -164 -105 -206 -115 -35 -8 -130
44 -167 90 -15 19 -54 56 -87 82 -33 25 -94 79 -135 118 -42 39 -87 77 -100
84 -26 14 -47 31 -144 121 -34 31 -68 60 -77 65 -25 14 -90 66 -126 102 -19
17 -39 33 -46 34 -7 0 -17 2 -23 2 -7 1 -21 12 -33 26 -18 22 -23 23 -33 10
-12 -14 -122 -92 -184 -130 -13 -8 -24 -19 -24 -24 0 -12 160 -161 220 -206
71 -53 119 -91 153 -123 17 -16 61 -50 97 -75 36 -25 90 -69 121 -96 30 -28
97 -85 149 -126 51 -41 123 -100 159 -130 149 -125 267 -210 289 -210 19 0 65
36 286 229 55 47 129 110 165 140 36 30 92 80 124 110 32 30 68 62 81 70 13 9
61 50 107 92 46 42 109 96 139 119 30 24 89 75 131 114 42 39 92 82 112 96 21
14 49 40 64 59 24 32 25 36 12 60 -8 14 -31 34 -50 43 -19 9 -41 23 -48 32 -8
9 -16 15 -20 15 -3 -1 -14 -3 -23 -6z"/>
<path d="M1004 2316 c-8 -21 65 -102 145 -162 35 -27 96 -78 135 -114 39 -36
94 -83 121 -105 28 -22 96 -80 152 -130 225 -198 283 -248 398 -345 111 -93
166 -124 151 -84 -3 9 -6 17 -6 19 0 1 -42 34 -92 73 -51 38 -104 82 -118 97
-14 15 -60 56 -103 92 -43 36 -90 77 -106 92 -37 36 -149 132 -251 218 -47 39
-103 87 -125 108 -22 20 -77 65 -121 100 -45 36 -93 80 -108 100 -35 45 -64
62 -72 41z"/>
<path d="M3330 2293 c0 -20 -41 -125 -57 -145 -15 -20 -53 -103 -53 -117 0 -7
-9 -25 -19 -40 -11 -15 -23 -40 -27 -57 -4 -19 -43 -64 -112 -131 -58 -56
-103 -105 -99 -109 11 -11 60 26 164 124 35 33 51 31 120 -13 73 -47 81 -72
31 -103 -18 -10 -72 -56 -120 -101 -48 -46 -104 -94 -125 -108 -20 -14 -62
-49 -93 -78 -30 -29 -79 -73 -109 -97 -30 -23 -86 -72 -125 -108 -39 -36 -99
-87 -133 -113 -34 -26 -68 -55 -75 -65 -7 -9 -38 -37 -68 -62 -30 -25 -97 -82
-148 -128 -123 -108 -137 -117 -165 -105 -12 6 -56 38 -97 72 -41 34 -79 65
-85 69 -5 4 -67 55 -137 112 -204 169 -308 253 -358 290 -26 19 -90 72 -141
117 -52 45 -112 94 -133 108 -59 40 -156 128 -156 142 0 7 15 20 33 29 17 9
60 35 93 56 48 31 61 44 57 59 -7 25 -25 24 -48 -1 -10 -11 -24 -20 -30 -20
-7 0 -19 -7 -26 -17 -8 -9 -29 -22 -47 -30 -18 -7 -35 -20 -39 -28 -3 -8 -16
-15 -29 -15 -59 0 -11 -61 151 -190 37 -30 100 -82 139 -116 39 -33 96 -79
126 -101 30 -22 87 -69 125 -103 39 -34 87 -73 108 -87 21 -13 64 -48 96 -76
66 -60 91 -81 146 -121 22 -17 69 -55 105 -86 71 -62 153 -120 169 -120 11 0
149 108 170 134 8 10 49 45 90 79 42 33 104 87 138 120 34 33 75 67 90 77 15
9 64 50 108 91 44 41 100 90 125 109 25 19 74 62 110 97 36 34 88 79 116 100
54 40 119 99 222 199 45 44 61 66 56 78 -8 21 -110 89 -143 96 -13 3 -29 13
-35 22 -8 13 -5 21 16 37 22 18 98 172 98 200 0 5 7 14 16 19 17 9 54 111 54
149 0 16 -6 23 -20 23 -12 0 -20 -7 -20 -17z"/>
<path d="M3095 1961 c-5 -18 -168 -167 -285 -261 -30 -24 -83 -70 -117 -102
-34 -32 -66 -58 -72 -58 -5 0 -53 -43 -106 -95 -52 -52 -102 -95 -110 -95 -9
0 -18 -7 -21 -15 -4 -8 -12 -15 -18 -15 -7 0 -23 -12 -37 -26 -28 -31 -113
-74 -145 -74 -13 0 -25 -4 -28 -9 -10 -15 -89 0 -134 27 -24 13 -46 22 -49 19
-9 -10 23 -53 61 -82 42 -32 114 -37 166 -12 64 32 79 43 133 100 29 31 61 57
70 57 8 0 68 50 132 110 63 61 120 110 125 110 6 0 54 39 108 88 55 48 148
128 209 177 104 86 143 129 143 161 0 20 -18 17 -25 -5z"/>
<path d="M1221 1756 c-13 -15 -1 -29 35 -40 11 -3 34 -19 50 -34 48 -45 208
-178 227 -189 9 -5 61 -50 115 -99 53 -50 115 -102 137 -116 22 -14 69 -53
105 -87 119 -112 120 -113 138 -106 16 6 16 8 -2 18 -21 13 -93 87 -126 130
-12 15 -38 36 -58 46 -21 11 -75 56 -122 100 -47 45 -103 94 -125 108 -22 15
-83 66 -135 112 -52 46 -111 94 -130 106 -19 12 -44 32 -54 44 -22 24 -39 27
-55 7z"/>
</g>
</svg>
